<mxfile host="65bd71144e">
    <diagram id="ZRgNgkGBJunc0q0rqTIc" name="Page-1">
        <mxGraphModel dx="1016" dy="2923" grid="1" gridSize="10" guides="1" tooltips="1" connect="1" arrows="1" fold="1" page="1" pageScale="1" pageWidth="1654" pageHeight="2336" math="0" shadow="0">
            <root>
                <mxCell id="0"/>
                <mxCell id="1" parent="0"/>
                <mxCell id="2" value="" style="rounded=0;whiteSpace=wrap;html=1;" parent="1" vertex="1">
                    <mxGeometry x="270" y="10" width="260" height="570" as="geometry"/>
                </mxCell>
                <mxCell id="3" value="ECStack(调用栈)" style="text;html=1;align=center;verticalAlign=middle;resizable=0;points=[];autosize=1;strokeColor=none;" parent="1" vertex="1">
                    <mxGeometry x="270" y="-20" width="110" height="20" as="geometry"/>
                </mxCell>
                <mxCell id="4" value="" style="rounded=0;whiteSpace=wrap;html=1;" parent="1" vertex="1">
                    <mxGeometry x="310" y="440" width="190" height="120" as="geometry"/>
                </mxCell>
                <mxCell id="5" value="GEC(global exection context)" style="text;html=1;align=center;verticalAlign=middle;resizable=0;points=[];autosize=1;strokeColor=none;" parent="1" vertex="1">
                    <mxGeometry x="310" y="410" width="170" height="20" as="geometry"/>
                </mxCell>
                <mxCell id="8" value="VO(variable Object): GO" style="rounded=0;whiteSpace=wrap;html=1;align=left;" parent="1" vertex="1">
                    <mxGeometry x="320" y="440" width="170" height="60" as="geometry"/>
                </mxCell>
                <mxCell id="9" value="开始执行代码&lt;br&gt;foo()" style="rounded=0;whiteSpace=wrap;html=1;align=left;" parent="1" vertex="1">
                    <mxGeometry x="320" y="500" width="170" height="60" as="geometry"/>
                </mxCell>
                <mxCell id="10" value="{&lt;br&gt;name: &quot;why&quot;&lt;br&gt;foo: 0xa00&lt;br&gt;}" style="rounded=1;whiteSpace=wrap;html=1;align=left;" parent="1" vertex="1">
                    <mxGeometry x="950" y="180" width="120" height="60" as="geometry"/>
                </mxCell>
                <mxCell id="11" value="GlobalObject" style="text;html=1;align=center;verticalAlign=middle;resizable=0;points=[];autosize=1;strokeColor=none;" parent="1" vertex="1">
                    <mxGeometry x="970" y="150" width="80" height="20" as="geometry"/>
                </mxCell>
                <mxCell id="12" value="[[scope]]: parent scope&lt;br&gt;函数的执行体(代码块)" style="rounded=1;whiteSpace=wrap;html=1;align=left;" parent="1" vertex="1">
                    <mxGeometry x="950" y="350" width="130" height="70" as="geometry"/>
                </mxCell>
                <mxCell id="13" value="存储函数空间(foo) 0xa00" style="text;html=1;align=center;verticalAlign=middle;resizable=0;points=[];autosize=1;strokeColor=none;" parent="1" vertex="1">
                    <mxGeometry x="935" y="320" width="150" height="20" as="geometry"/>
                </mxCell>
                <mxCell id="14" value="" style="endArrow=classic;html=1;" parent="1" source="10" edge="1">
                    <mxGeometry width="50" height="50" relative="1" as="geometry">
                        <mxPoint x="1090" y="210" as="sourcePoint"/>
                        <mxPoint x="1010" y="349" as="targetPoint"/>
                    </mxGeometry>
                </mxCell>
                <mxCell id="15" value="" style="rounded=0;whiteSpace=wrap;html=1;" parent="1" vertex="1">
                    <mxGeometry x="305" y="245" width="190" height="140" as="geometry"/>
                </mxCell>
                <mxCell id="16" value="函数执行上下文(FEC)(foo)&lt;br&gt;Functional Execution Context" style="text;html=1;align=center;verticalAlign=middle;resizable=0;points=[];autosize=1;strokeColor=none;" parent="1" vertex="1">
                    <mxGeometry x="305" y="205" width="170" height="30" as="geometry"/>
                </mxCell>
                <mxCell id="17" value="VO(variable Object): AO&lt;br&gt;scope chain: AO +&amp;nbsp;ParentScope" style="rounded=0;whiteSpace=wrap;html=1;align=left;" parent="1" vertex="1">
                    <mxGeometry x="315" y="245" width="175" height="60" as="geometry"/>
                </mxCell>
                <mxCell id="18" value="{&lt;br&gt;num: 123&lt;br&gt;m: 10&lt;br&gt;n: 20&lt;br&gt;bar: 0xb00&lt;br&gt;}" style="rounded=1;whiteSpace=wrap;html=1;align=left;" parent="1" vertex="1">
                    <mxGeometry x="760" y="180" width="130" height="90" as="geometry"/>
                </mxCell>
                <mxCell id="19" value="AO(Activation Object)(foo)" style="text;html=1;align=center;verticalAlign=middle;resizable=0;points=[];autosize=1;strokeColor=none;" parent="1" vertex="1">
                    <mxGeometry x="735" y="150" width="160" height="20" as="geometry"/>
                </mxCell>
                <mxCell id="20" value="开始执行函数代码&lt;br&gt;console.log(name)" style="rounded=0;whiteSpace=wrap;html=1;align=left;" parent="1" vertex="1">
                    <mxGeometry x="315" y="305" width="175" height="60" as="geometry"/>
                </mxCell>
                <mxCell id="21" value="当我们查找一个变量时,真实的查找路径是沿着作用域链来查找" style="text;html=1;align=center;verticalAlign=middle;resizable=0;points=[];autosize=1;strokeColor=none;" parent="1" vertex="1">
                    <mxGeometry x="610" y="40" width="340" height="20" as="geometry"/>
                </mxCell>
                <mxCell id="23" value="[[scope]]: parent scope&lt;br&gt;函数的执行体(代码块)" style="rounded=1;whiteSpace=wrap;html=1;align=left;" parent="1" vertex="1">
                    <mxGeometry x="755" y="350" width="130" height="70" as="geometry"/>
                </mxCell>
                <mxCell id="24" value="存储函数空间(bar) 0xb00" style="text;html=1;align=center;verticalAlign=middle;resizable=0;points=[];autosize=1;strokeColor=none;" parent="1" vertex="1">
                    <mxGeometry x="740" y="320" width="150" height="20" as="geometry"/>
                </mxCell>
                <mxCell id="25" value="" style="endArrow=classic;html=1;entryX=0.344;entryY=-0.069;entryDx=0;entryDy=0;entryPerimeter=0;" parent="1" target="23" edge="1">
                    <mxGeometry width="50" height="50" relative="1" as="geometry">
                        <mxPoint x="800" y="251" as="sourcePoint"/>
                        <mxPoint x="800" y="340" as="targetPoint"/>
                    </mxGeometry>
                </mxCell>
                <mxCell id="26" value="" style="rounded=0;whiteSpace=wrap;html=1;" parent="1" vertex="1">
                    <mxGeometry x="300" y="50" width="190" height="140" as="geometry"/>
                </mxCell>
                <mxCell id="27" value="函数执行上下文(FEC)(bar)&lt;br&gt;Functional Execution Context" style="text;html=1;align=center;verticalAlign=middle;resizable=0;points=[];autosize=1;strokeColor=none;" parent="1" vertex="1">
                    <mxGeometry x="300" y="10" width="170" height="30" as="geometry"/>
                </mxCell>
                <mxCell id="28" value="VO(variable Object): AO&lt;br&gt;scope chain: AO + ParentScope" style="rounded=0;whiteSpace=wrap;html=1;align=left;" parent="1" vertex="1">
                    <mxGeometry x="310" y="50" width="175" height="60" as="geometry"/>
                </mxCell>
                <mxCell id="29" value="开始执行函数代码&lt;br&gt;console.log(name)" style="rounded=0;whiteSpace=wrap;html=1;align=left;" parent="1" vertex="1">
                    <mxGeometry x="310" y="110" width="175" height="60" as="geometry"/>
                </mxCell>
                <mxCell id="30" value="{&lt;br&gt;}" style="rounded=1;whiteSpace=wrap;html=1;align=left;" parent="1" vertex="1">
                    <mxGeometry x="590" y="180" width="130" height="90" as="geometry"/>
                </mxCell>
                <mxCell id="31" value="AO(Activation Object)(bar)" style="text;html=1;align=center;verticalAlign=middle;resizable=0;points=[];autosize=1;strokeColor=none;" parent="1" vertex="1">
                    <mxGeometry x="565" y="150" width="160" height="20" as="geometry"/>
                </mxCell>
            </root>
        </mxGraphModel>
    </diagram>
</mxfile>